<?xml version="1.0" encoding="UTF-8" standalone="no" ?>
<!DOCTYPE svg PUBLIC "-//W3C//DTD SVG 1.1//EN" "http://www.w3.org/Graphics/SVG/1.1/DTD/svg11.dtd">
<svg xmlns="http://www.w3.org/2000/svg" xmlns:xlink="http://www.w3.org/1999/xlink" version="1.1" width="400" height="400" viewBox="0 0 400 400" xml:space="preserve">
<desc>Created with Fabric.js 3.6.2</desc>
<defs>
</defs>
<g transform="matrix(0.39 0 0 0.39 200.01 200)" id="Layer_1"  >
<path style="stroke: none; stroke-width: 1; stroke-dasharray: none; stroke-linecap: butt; stroke-dashoffset: 0; stroke-linejoin: miter; stroke-miterlimit: 4; fill: rgb(103,92,168); fill-rule: evenodd; opacity: 1;"  transform=" translate(-256.01, -256)" d="M 485 29.72 c 11.45 15.13 16.61 40.21 19.15 70.7 c 3.36 45.5 4.71 100.1 6 156.52 c -1.67 57.47 -2.35 115.43 -6 156.52 c -2.88 31.54 -9 52.66 -19.22 65.47 c -13 12.79 -37.94 23.59 -73.5 26.15 c -43.25 3.69 -96.61 3.65 -155.48 5.1 c -65.44 -1.12 -109.82 -0.64 -156.38 -5.08 c -36.32 -2.52 -60.08 -13.19 -74.7 -26.07 c -10.83 -14.54 -14 -30 -17 -66.24 c -3.75 -41.85 -4.58 -98.56 -6 -155.54 C 4 200.57 4.13 143.44 7.9 100.74 C 10.43 67.05 14.42 44.4 24.65 30 C 39 17.77 63.48 11.69 100 8.69 c 50 -5.85 102.06 -7 155.88 -6.87 c 55.39 0.09 108.56 1.67 156 6.34 c 32 2.56 58.48 8.07 73.07 21.56 Z" stroke-linecap="round" />
</g>
<g transform="matrix(0.39 0 0 0.39 197.44 197.25)" id="Layer_1"  >
<path style="stroke: none; stroke-width: 1; stroke-dasharray: none; stroke-linecap: butt; stroke-dashoffset: 0; stroke-linejoin: miter; stroke-miterlimit: 4; fill: rgb(255,255,255); fill-rule: nonzero; opacity: 1;"  transform=" translate(-249.5, -249)" d="M 249.5 99 a 150 150 0 1 0 150 150 A 150 150 0 0 0 249.5 99 Z m -1.79 64.37 a 5 5 0 0 1 2.69 -3.15 a 8.26 8.26 0 0 1 3.18 -0.62 s 1.33 -0.09 2.5 -0.05 c 39.66 1.06 73.91 29.22 78.85 71.87 A 111.57 111.57 0 0 1 336 244.58 c 0 1.39 0.06 3.91 -1.65 5.54 a 5.13 5.13 0 0 1 -2.27 1.22 a 6.13 6.13 0 0 1 -3.24 -1.76 a 6.65 6.65 0 0 1 -1.52 -4.23 a 131.28 131.28 0 0 0 -3.29 -23 c -6.59 -28 -32 -50.08 -60.63 -53.28 c -3.33 -0.37 -6.66 -0.74 -10 -0.89 c -2.27 -0.1 -4.52 -0.52 -5.41 -2 A 3.86 3.86 0 0 1 247.71 163.37 Z m 15.58 26.36 a 17.56 17.56 0 0 1 -3.69 -0.55 c -1.59 -0.42 -2.83 -0.76 -3.77 -1.85 a 5.23 5.23 0 0 1 -1.17 -3.25 a 5.08 5.08 0 0 1 1.62 -2.63 a 5.76 5.76 0 0 1 4 -1 c 23.38 1.17 37.22 14.7 37.22 14.7 a 60.27 60.27 0 0 1 10.59 14.34 A 63.7 63.7 0 0 1 315.36 234 a 10.12 10.12 0 0 1 -0.79 5.12 a 5.38 5.38 0 0 1 -1.74 2.38 a 5 5 0 0 1 -3 0.9 a 5.45 5.45 0 0 1 -2 -1.3 a 4.68 4.68 0 0 1 -1.29 -2.25 c -1.23 -10.73 -2.91 -21.21 -9.51 -30.27 C 288.64 197.11 276.78 192 263.29 189.73 Z m 30.57 40.77 c -0.23 3.11 -1.49 4.26 -1.81 4.53 a 5 5 0 0 1 -2.69 1.09 a 5.28 5.28 0 0 1 -2.73 -1.36 a 5.93 5.93 0 0 1 -1.54 -3.64 c -0.31 -2.69 -2.24 -11.3 -6.64 -15.27 c -2.75 -2.48 -6.56 -3.79 -12.12 -4.6 c -2.23 -0.32 -4.4 -0.78 -5.18 -2.26 a 3.74 3.74 0 0 1 -0.07 -2.81 c 0.91 -2.95 4.49 -3.8 4.77 -3.86 c 2.37 0.33 17.54 2.67 24.48 14 A 25.11 25.11 0 0 1 293.86 230.5 Z m 41.78 83.55 c -5.69 6.93 -11.19 14.23 -17.93 20 c -5.79 5 -13.35 5.58 -20.88 2.5 C 235 311.33 190.59 268.39 165 206.41 c -0.64 -1.55 -1.16 -3.16 -1.71 -4.75 c -4.79 -13.91 -3.35 -19.31 8.07 -28.67 a 130.83 130.83 0 0 1 11.77 -8.46 c 6.81 -4.42 14.29 -4.37 19.44 1.83 a 288.08 288.08 0 0 1 23.73 32.49 c 5.24 8.5 3.37 13.32 -4.32 19.72 c -1.78 1.48 -3.68 2.81 -5.46 4.28 c -4.45 3.7 -6.33 8.1 -4.37 14 c 8.6 25.63 26.56 41.84 51.58 50.45 c 2.91 1 7.46 -1.25 10.64 -3.05 c 2.38 -1.35 3.77 -4.42 5.61 -6.72 c 5 -6.22 13 -8.85 19.65 -4.64 c 11.86 7.53 23.23 15.89 34.38 24.45 c 2.39 1.84 3 6 4.26 8.86 C 337.23 309.45 337.09 312.29 335.64 314.06 Z" stroke-linecap="round" />
</g>
</svg>